<svg width="80" height="80" viewBox="0 0 80 80" fill="none" xmlns="http://www.w3.org/2000/svg">
<path d="M72.9621 37.897C72.9581 37.8132 72.9542 37.7282 72.949 37.6444C72.9477 37.5947 72.9437 37.545 72.9411 37.4939C72.9215 37.1602 72.8966 36.8265 72.8678 36.4929C72.8338 36.1107 72.7932 35.7299 72.7474 35.3504C72.7304 35.2144 72.7134 35.077 72.6938 34.9409C72.6755 34.8048 72.6572 34.6687 72.6362 34.5339C72.5943 34.2499 72.5498 33.966 72.5001 33.6846C72.4792 33.5616 72.4569 33.4386 72.4334 33.3169C72.4085 33.1821 72.3837 33.0473 72.3562 32.9138C72.33 32.7791 72.3025 32.6456 72.2737 32.5121C72.2214 32.2622 72.1664 32.0135 72.1075 31.7662C72.0735 31.6249 72.0395 31.4836 72.0055 31.3422C71.7699 30.3974 71.4938 29.4657 71.1771 28.5484C71.1326 28.4175 71.0868 28.288 71.0397 28.1584C70.9076 27.7868 70.7675 27.4164 70.6197 27.05C70.5699 26.9244 70.5189 26.7988 70.4666 26.6732C70.4221 26.5646 70.3763 26.4572 70.3305 26.3486C70.2794 26.2282 70.2271 26.1079 70.1734 25.9888C70.1263 25.8815 70.0792 25.7755 70.0308 25.6695C69.9929 25.5844 69.9536 25.5007 69.9143 25.4156C69.9013 25.3842 69.8855 25.3541 69.8712 25.3227C69.8293 25.2337 69.7874 25.1434 69.7442 25.0544C69.6474 24.849 69.5466 24.6462 69.4445 24.4446C69.3857 24.3255 69.3242 24.2078 69.2627 24.0887C69.1226 23.8178 68.9774 23.5482 68.8282 23.2813C68.7903 23.2106 68.7523 23.1413 68.7117 23.0719C68.6803 23.0143 68.6476 22.9581 68.6149 22.9018H68.6136C68.5678 22.8207 68.5233 22.7395 68.4762 22.6597C68.4042 22.538 68.3336 22.4176 68.2616 22.2985C68.009 21.8772 67.746 21.461 67.4738 21.0501C67.3338 20.8395 67.1938 20.6314 67.0485 20.4233C66.953 20.2846 66.8562 20.1485 66.758 20.0124C66.6769 19.8986 66.5944 19.7847 66.5107 19.6722C66.4754 19.6225 66.4387 19.574 66.4021 19.5256C66.2673 19.3437 66.1299 19.1645 65.9912 18.9865C65.8224 18.7693 65.6496 18.5533 65.4743 18.3387C65.4298 18.2851 65.3853 18.2301 65.3395 18.1752C64.9338 17.6844 64.5138 17.2055 64.078 16.7357C64.0165 16.6703 63.955 16.6035 63.8922 16.5368L63.8804 16.525C63.7927 16.4321 63.7051 16.3392 63.6148 16.2476C63.4747 16.101 63.3321 15.9558 63.1882 15.8118C63.0848 15.7085 62.9814 15.6064 62.8767 15.5056C62.8152 15.4441 62.7524 15.3839 62.6896 15.3237C62.5954 15.2321 62.4998 15.1418 62.403 15.0515C62.2878 14.9429 62.1714 14.8356 62.0549 14.7296C61.9267 14.6119 61.7971 14.4967 61.6676 14.3815C61.5289 14.2585 61.3902 14.1368 61.2488 14.0178C61.1585 13.9379 61.0656 13.8607 60.9727 13.7835C60.8641 13.6919 60.7542 13.6016 60.6443 13.5113C60.5343 13.421 60.4244 13.3321 60.3132 13.2444C60.2229 13.1724 60.1313 13.1004 60.0397 13.0285C59.9429 12.9539 59.846 12.878 59.7479 12.8047C59.6851 12.7563 59.6222 12.7092 59.5594 12.6621C59.4835 12.6045 59.4076 12.5469 59.3304 12.4906C59.2925 12.4631 59.2545 12.4357 59.2166 12.4069C59.1407 12.3532 59.0661 12.2983 58.9889 12.2433C58.8646 12.153 58.7403 12.0653 58.6133 11.9777C58.383 11.8154 58.1501 11.6584 57.9145 11.5026C57.7797 11.4137 57.645 11.326 57.5089 11.2396C57.3859 11.1611 57.2629 11.0826 57.1398 11.0067C57.1084 10.9857 57.0744 10.9648 57.0417 10.9452C56.9409 10.8824 56.8389 10.8222 56.7381 10.7607C56.6975 10.7358 56.657 10.7122 56.6164 10.6874C56.4921 10.6128 56.3678 10.5395 56.2421 10.4675C56.1034 10.3864 55.9647 10.3079 55.8234 10.2294C55.7593 10.1927 55.6952 10.1574 55.6297 10.1221C55.2633 9.91924 54.893 9.72426 54.5174 9.53713C54.4284 9.49133 54.3395 9.44684 54.2492 9.40365C54.1602 9.35916 54.0712 9.31598 53.9809 9.27279C53.8906 9.22961 53.8016 9.18643 53.7113 9.14455C53.621 9.10137 53.5307 9.05949 53.4404 9.01893C52.9484 8.79385 52.4512 8.58055 51.95 8.38033C51.8243 8.3293 51.6974 8.27957 51.5705 8.23115C51.4435 8.18273 51.3166 8.13432 51.1897 8.08721C51.0928 8.05057 50.996 8.01523 50.8979 7.9799C50.7251 7.91709 50.5524 7.85689 50.3783 7.79801C50.2645 7.75875 50.1506 7.7208 50.0368 7.68285C49.3027 7.43945 48.5594 7.22354 47.8083 7.03248C47.7088 7.00762 47.608 6.98275 47.5073 6.95789C47.3934 6.93041 47.2809 6.90293 47.1657 6.87676C47.0702 6.8532 46.9747 6.83227 46.8779 6.81002C46.7483 6.78123 46.6187 6.75375 46.4879 6.72627C46.3976 6.70664 46.3073 6.68832 46.2157 6.67C46.1463 6.65561 46.0783 6.64252 46.0089 6.62943C45.3023 6.48941 44.5904 6.37426 43.872 6.28135C43.7752 6.26826 43.677 6.25648 43.5789 6.24471C43.2674 6.20676 42.956 6.17404 42.6432 6.14525C42.6406 6.14395 42.6393 6.14395 42.638 6.14525C42.5294 6.13348 42.4195 6.12432 42.3096 6.11646C42.0282 6.0916 41.7455 6.07197 41.4629 6.05758C41.3962 6.05234 41.3281 6.04842 41.2614 6.0458C41.1946 6.04188 41.1279 6.03926 41.0598 6.03664C41.035 6.03533 41.0114 6.03402 40.9866 6.03402C40.8321 6.02617 40.6777 6.02094 40.5233 6.0157C40.5024 6.01439 40.4801 6.01439 40.4579 6.01439C40.3009 6.00916 40.1438 6.00523 39.9855 6.00393C39.8245 6.00131 39.6623 6 39.5 6C38.8431 6 38.1888 6.01832 37.5371 6.05758C32.8811 6.32322 28.4044 7.54021 24.3321 9.61303C24.2169 9.67191 24.1031 9.7308 23.9892 9.791C23.6464 9.96896 23.3048 10.1548 22.9685 10.3471C22.2802 10.7384 21.605 11.1546 20.9441 11.5955C20.6222 11.8115 20.3042 12.0326 19.9889 12.259C18.5167 13.3177 17.1191 14.5046 15.8118 15.8118C14.4509 17.1728 13.2208 18.6319 12.1295 20.1708C11.89 20.5071 11.6584 20.8473 11.432 21.1915C10.7122 22.2907 10.0606 23.4265 9.47955 24.5964C7.46955 28.6347 6.29574 33.063 6.04973 37.664C6.01701 38.2738 6 38.885 6 39.5C6 40.2001 6.02094 40.8963 6.06412 41.5898C6.08506 41.9458 6.11254 42.3004 6.14656 42.655C6.49596 46.4316 7.47479 50.0747 9.02939 53.464C9.20998 53.8566 9.39711 54.2452 9.5934 54.63C10.1836 55.7946 10.8444 56.9265 11.572 58.0205C12.7968 59.8591 14.214 61.5904 15.8118 63.1882C17.4607 64.837 19.2521 66.2935 21.1561 67.5432C22.254 68.2655 23.3899 68.9198 24.5598 69.5021C24.8896 69.667 25.2219 69.8267 25.5569 69.9798C28.9619 71.5396 32.6246 72.5171 36.4196 72.86C36.8187 72.8979 37.2191 72.9267 37.6209 72.9477C38.2438 72.983 38.8706 73 39.5 73C39.7081 73 39.9148 72.9987 40.1216 72.9935C40.2302 72.9921 40.3388 72.9895 40.4461 72.9856C40.4566 72.9869 40.4671 72.9869 40.4775 72.9856C40.5181 72.9843 40.5587 72.9843 40.5992 72.9817C40.6058 72.9817 40.6136 72.9817 40.6202 72.9804C40.7589 72.9764 40.8976 72.9712 41.0363 72.9647C41.1868 72.9581 41.3373 72.9503 41.4864 72.9411C41.5061 72.9411 41.5257 72.9398 41.5466 72.9385C41.6984 72.9293 41.8502 72.9202 42.0007 72.9084C42.2768 72.8875 42.5529 72.8639 42.8278 72.8377C42.9717 72.8233 43.117 72.8089 43.2609 72.7919C43.4035 72.7762 43.5462 72.7592 43.6875 72.7422C43.8118 72.7278 43.9348 72.7108 44.0591 72.6938C44.1442 72.6833 44.2279 72.6715 44.313 72.6585C44.3719 72.6506 44.4308 72.6414 44.4897 72.6323C44.6179 72.614 44.7462 72.5943 44.8731 72.5734C44.9699 72.559 45.0654 72.5433 45.161 72.5263C45.233 72.5145 45.3062 72.5014 45.3782 72.4883C45.3913 72.487 45.4044 72.4844 45.4175 72.4818C45.4921 72.4687 45.5666 72.4556 45.6399 72.4412C45.6674 72.4373 45.6949 72.4321 45.7224 72.4255C45.7956 72.4124 45.8676 72.3994 45.9396 72.3837C45.9553 72.3823 45.971 72.3797 45.9867 72.3745C46.0443 72.364 46.1019 72.3536 46.1581 72.3418C46.2694 72.3195 46.378 72.2973 46.4879 72.2737C46.8347 72.2018 47.1788 72.1232 47.5217 72.0382C47.6395 72.0107 47.7559 71.9806 47.8724 71.9505C47.9417 71.9335 48.0111 71.9152 48.0805 71.8969C48.1721 71.8733 48.2623 71.8484 48.3539 71.8236C48.3566 71.8236 48.3579 71.8223 48.3605 71.8223C48.4704 71.7922 48.5816 71.7621 48.6916 71.7294C48.7884 71.7019 48.8865 71.6744 48.9834 71.6456C49.1692 71.5906 49.3563 71.5344 49.5408 71.4768C49.6638 71.4388 49.7855 71.3996 49.9072 71.359C50.0407 71.3158 50.1742 71.2713 50.3077 71.2255C50.3744 71.2033 50.4412 71.1811 50.5079 71.1575C50.5746 71.1353 50.6414 71.1117 50.7081 71.0868C50.8403 71.0397 50.9738 70.9926 51.1059 70.9429C51.2381 70.8945 51.3689 70.8461 51.5011 70.795C51.632 70.744 51.7641 70.6929 51.895 70.6406C52.0259 70.5883 52.1567 70.5359 52.2863 70.4823C52.4171 70.4286 52.5467 70.3737 52.6762 70.3187C52.6841 70.3161 52.6932 70.3121 52.7024 70.3082C52.8594 70.2402 53.0165 70.1721 53.1735 70.1015C53.1787 70.1002 53.184 70.0975 53.1892 70.0949C53.3449 70.0243 53.4993 69.9536 53.6538 69.8816C53.9691 69.7338 54.2819 69.582 54.592 69.4249C54.7373 69.3516 54.8825 69.2771 55.0278 69.2012C55.1403 69.1423 55.2529 69.0821 55.3641 69.0219C55.6938 68.8465 56.0184 68.6633 56.3403 68.4762C56.4738 68.3977 56.6059 68.3192 56.7381 68.2393C57.0404 68.0588 57.3387 67.8716 57.6345 67.6806C57.7523 67.6047 57.8687 67.5275 57.9852 67.4503C58.294 67.2461 58.6002 67.0354 58.9025 66.8182C59.0923 66.6834 59.2794 66.546 59.4665 66.4073C59.6537 66.2686 59.8382 66.1286 60.0214 65.9846L60.2412 65.8119C60.3511 65.7255 60.4611 65.6379 60.5697 65.5489C60.6613 65.4756 60.7516 65.401 60.8405 65.3264C60.9465 65.2387 61.0512 65.1511 61.1559 65.0621C61.8547 64.4693 62.5326 63.8438 63.1882 63.1882C63.3413 63.0351 63.4931 62.8806 63.6422 62.7249C63.7325 62.632 63.8215 62.5378 63.9092 62.4436C64.0819 62.2617 64.2494 62.0785 64.4169 61.894C64.5753 61.7173 64.7323 61.5406 64.8867 61.3614C64.9024 61.343 64.9181 61.3247 64.9338 61.3064C65.0267 61.1991 65.1183 61.0905 65.2086 60.9819C65.3473 60.817 65.4847 60.6508 65.6195 60.4833C65.6758 60.4126 65.7321 60.342 65.7883 60.2713C65.8682 60.1705 65.9467 60.0711 66.0252 59.969C66.1037 59.8683 66.1822 59.7662 66.2594 59.6628C66.389 59.4927 66.5159 59.3213 66.6402 59.1498C66.7044 59.0609 66.7685 58.9732 66.8313 58.8842C66.8365 58.879 66.8405 58.8724 66.8457 58.8646C66.9831 58.6722 67.1192 58.4759 67.2527 58.2796C67.3403 58.1527 67.4254 58.0245 67.5091 57.8962C67.5131 57.891 67.517 57.8857 67.5209 57.8792C67.5248 57.8727 67.5301 57.8661 67.5327 57.8596C67.5863 57.7797 67.6387 57.7012 67.6897 57.6201C67.708 57.5913 67.7277 57.5625 67.746 57.5324C67.8494 57.3702 67.9528 57.2066 68.0548 57.0417C68.1399 56.903 68.2236 56.7643 68.3074 56.6243C68.3401 56.5693 68.3728 56.513 68.4055 56.4568C68.4553 56.373 68.505 56.2893 68.5534 56.2055C68.8007 55.7789 69.0363 55.3471 69.2627 54.9113C69.3372 54.7674 69.4105 54.6234 69.4825 54.4782C69.595 54.2544 69.705 54.0306 69.811 53.8042C69.8973 53.6197 69.9837 53.4352 70.0674 53.2494C70.1132 53.1486 70.1564 53.0492 70.2009 52.9484C70.2546 52.828 70.3056 52.7063 70.3566 52.5859C70.587 52.0481 70.8003 51.5024 70.9992 50.9528C71.0345 50.8586 71.0685 50.7631 71.1012 50.6675C71.2295 50.3077 71.3499 49.9439 71.4637 49.5788C71.503 49.4571 71.5396 49.3354 71.5762 49.2137C71.6116 49.0985 71.6456 48.9834 71.6796 48.8682C71.7254 48.7112 71.7699 48.5529 71.8131 48.3945C71.8196 48.371 71.8262 48.3474 71.8314 48.3238C71.8668 48.1956 71.9008 48.0674 71.9335 47.9378C71.9427 47.9051 71.9518 47.8724 71.9584 47.8397C71.9858 47.735 72.0133 47.629 72.0382 47.523C72.0552 47.4536 72.0722 47.383 72.0892 47.3136C72.2384 46.6855 72.3706 46.0508 72.4818 45.4122C72.4988 45.3154 72.5171 45.2172 72.5328 45.1191C72.5472 45.0367 72.5603 44.9555 72.5734 44.8731C72.5956 44.7383 72.6166 44.6022 72.6362 44.4661C72.6572 44.3313 72.6755 44.1952 72.6938 44.0591C72.7213 43.8602 72.7461 43.6626 72.7684 43.4637C72.7815 43.3551 72.7932 43.2452 72.805 43.1353C72.8207 42.9939 72.8351 42.8513 72.8482 42.7087C72.8561 42.6367 72.8626 42.5647 72.8678 42.4941C72.8744 42.4234 72.8796 42.3514 72.8862 42.2795C72.8966 42.1525 72.9058 42.0256 72.9149 41.8987C72.9202 41.8437 72.9241 41.7874 72.9267 41.7325C72.9333 41.6278 72.9398 41.5244 72.945 41.4197C72.9542 41.2601 72.9621 41.1004 72.9686 40.9408C72.983 40.6215 72.9921 40.3022 72.9961 39.9816C72.9987 39.8206 73 39.661 73 39.5V39.4647C73 38.9399 72.9869 38.4178 72.9621 37.897Z" fill="#F1F1F1"/>
<path d="M73 39.5C73 39.661 72.9987 39.8206 72.9961 39.9816C72.9921 40.3022 72.983 40.6215 72.9686 40.9408C72.9621 41.1004 72.9542 41.2601 72.945 41.4197C72.9398 41.5244 72.9333 41.6278 72.9267 41.7325C72.9241 41.7874 72.9202 41.8437 72.9149 41.8987C72.9058 42.0256 72.8966 42.1525 72.8862 42.2795C72.8796 42.3514 72.8744 42.4234 72.8678 42.4941C72.8626 42.5647 72.8561 42.6367 72.8482 42.7087C72.8351 42.8513 72.8207 42.9939 72.805 43.1353C72.7932 43.2452 72.7815 43.3551 72.7684 43.4637C72.7461 43.6626 72.7213 43.8602 72.6938 44.0591C72.6755 44.1952 72.6572 44.3313 72.6362 44.4661C72.6166 44.6022 72.5956 44.7383 72.5734 44.8731C72.5603 44.9555 72.5472 45.0367 72.5328 45.1191C72.5171 45.2172 72.4988 45.3154 72.4818 45.4122C72.3706 46.0508 72.2384 46.6855 72.0892 47.3136C72.0722 47.383 72.0552 47.4536 72.0382 47.523C72.0133 47.629 71.9858 47.735 71.9584 47.8397C71.9518 47.8724 71.9427 47.9051 71.9335 47.9378C71.9008 48.0674 71.8668 48.1956 71.8314 48.3238C71.8262 48.3474 71.8196 48.371 71.8131 48.3945C71.7699 48.5529 71.7254 48.7112 71.6796 48.8682C71.6456 48.9834 71.6116 49.0985 71.5762 49.2137C71.5396 49.3354 71.503 49.4571 71.4637 49.5788C71.3499 49.9439 71.2295 50.3077 71.1012 50.6675C71.0685 50.7631 71.0345 50.8586 70.9992 50.9528C70.8003 51.5024 70.587 52.0481 70.3566 52.5859C70.3069 52.7076 70.2546 52.828 70.2009 52.9484C70.1564 53.0492 70.1132 53.1486 70.0674 53.2494C69.9837 53.4352 69.8973 53.6197 69.811 53.8042C69.705 54.0306 69.595 54.2544 69.4825 54.4782C69.4105 54.6234 69.3372 54.7674 69.2627 54.9113C69.0363 55.3471 68.8007 55.7789 68.5534 56.2055C68.4723 56.3455 68.3898 56.4855 68.3074 56.6243C68.2236 56.7643 68.1399 56.903 68.0548 57.0417C67.9528 57.2066 67.8494 57.3702 67.746 57.5324C67.7277 57.5625 67.708 57.5913 67.6897 57.6201C67.6387 57.7012 67.5863 57.7797 67.5327 57.8596C67.5301 57.8661 67.5248 57.8727 67.5209 57.8792C67.517 57.8857 67.5131 57.891 67.5091 57.8962C67.4254 58.0245 67.3403 58.1527 67.2527 58.2796C67.1192 58.4759 66.9831 58.6722 66.8457 58.8646C66.8405 58.8724 66.8365 58.879 66.8313 58.8842C66.7685 58.9732 66.7044 59.0609 66.6402 59.1498C66.5159 59.3213 66.389 59.4927 66.2594 59.6628C66.1822 59.7662 66.1037 59.8683 66.0252 59.969C65.9467 60.0711 65.8682 60.1705 65.7883 60.2713C65.7321 60.342 65.6758 60.4126 65.6195 60.4833C65.4847 60.6508 65.3473 60.817 65.2086 60.9819C65.1183 61.0905 65.0267 61.1991 64.9338 61.3064C64.9181 61.3247 64.9024 61.343 64.8867 61.3614C64.7323 61.5406 64.5753 61.7173 64.4169 61.894C64.2494 62.0785 64.0819 62.2617 63.9092 62.4436C63.8215 62.5378 63.7325 62.632 63.6422 62.7249C63.4931 62.8806 63.3413 63.0351 63.1882 63.1882C62.5326 63.8438 61.8547 64.4693 61.1559 65.0621C61.0512 65.1511 60.9465 65.2387 60.8405 65.3264C60.7516 65.401 60.6613 65.4756 60.5697 65.5489C60.4611 65.6379 60.3511 65.7255 60.2412 65.8119L60.0214 65.9846C59.8382 66.1286 59.6537 66.2686 59.4665 66.4073C59.2794 66.546 59.0923 66.6834 58.9025 66.8182C58.6002 67.0354 58.294 67.2461 57.9852 67.4503C57.8687 67.5275 57.7523 67.6047 57.6345 67.6806C57.3387 67.8716 57.0404 68.0588 56.7381 68.2393C56.6059 68.3192 56.4738 68.3977 56.3403 68.4762C56.0184 68.6633 55.6938 68.8465 55.3641 69.0219C55.2529 69.0821 55.1403 69.1423 55.0278 69.2012C54.8825 69.2771 54.7373 69.3516 54.592 69.4249C54.2819 69.5833 53.9691 69.7351 53.6538 69.8816C53.4993 69.9536 53.3449 70.0243 53.1892 70.0949C53.184 70.0975 53.1787 70.1002 53.1735 70.1015C53.0165 70.1721 52.8594 70.2402 52.7024 70.3082C52.6932 70.3121 52.6841 70.3161 52.6762 70.3187C52.5467 70.3737 52.4171 70.4286 52.2863 70.4823C52.1567 70.5359 52.0259 70.5883 51.895 70.6406C51.7641 70.6929 51.632 70.744 51.5011 70.795C51.3689 70.8461 51.2381 70.8945 51.1059 70.9429C50.9738 70.9926 50.8403 71.0397 50.7081 71.0868C50.6414 71.1117 50.5746 71.1353 50.5079 71.1575C50.4412 71.1811 50.3744 71.2033 50.3077 71.2255C50.1742 71.2713 50.0407 71.3158 49.9072 71.359C49.7855 71.3996 49.6638 71.4388 49.5408 71.4768C49.3563 71.5344 49.1692 71.5906 48.9834 71.6456C48.8865 71.6744 48.7884 71.7019 48.6916 71.7294C48.5816 71.7621 48.4704 71.7922 48.3605 71.8223C48.3579 71.8223 48.3566 71.8236 48.3539 71.8236C48.2623 71.8484 48.1721 71.8733 48.0805 71.8969C48.0111 71.9152 47.9417 71.9335 47.8724 71.9505C47.7559 71.9806 47.6395 72.0107 47.5217 72.0382C47.1788 72.1232 46.8347 72.2018 46.4879 72.2737C46.378 72.2973 46.2694 72.3195 46.1581 72.3418C46.1019 72.3536 46.0443 72.364 45.9867 72.3745C45.971 72.3797 45.9553 72.3823 45.9396 72.3837C45.8676 72.3994 45.7956 72.4124 45.7224 72.4255C45.6949 72.4321 45.6674 72.4373 45.6399 72.4412C45.5666 72.4556 45.4921 72.4687 45.4175 72.4818C45.4044 72.4844 45.3913 72.487 45.3782 72.4883C45.3062 72.5014 45.233 72.5145 45.161 72.5263C45.0655 72.5433 44.9699 72.559 44.8731 72.5734C44.7462 72.5943 44.6179 72.614 44.4897 72.6323C44.4308 72.6414 44.3719 72.6506 44.313 72.6585C44.2279 72.6715 44.1442 72.6833 44.0591 72.6938C43.9348 72.7108 43.8118 72.7278 43.6875 72.7422C43.5462 72.7592 43.4035 72.7762 43.2609 72.7919C43.117 72.8089 42.9717 72.8233 42.8278 72.8377C42.5529 72.8639 42.2768 72.8875 42.0007 72.9084C41.8502 72.9202 41.6984 72.9293 41.5466 72.9385C41.5257 72.9398 41.5061 72.9411 41.4864 72.9411C41.3373 72.9503 41.1868 72.9581 41.0363 72.9647C40.8976 72.9712 40.7589 72.9764 40.6202 72.9804C40.6136 72.9817 40.6058 72.9817 40.5992 72.9817C40.5587 72.9843 40.5181 72.9843 40.4775 72.9856C40.4671 72.9869 40.4566 72.9869 40.4461 72.9856C40.3388 72.9895 40.2302 72.9921 40.1216 72.9935C39.9148 72.9987 39.7081 73 39.5 73V6C39.6623 6 39.8245 6.00131 39.9855 6.00393C40.3454 6.00785 40.7026 6.01963 41.0598 6.03664C41.1279 6.03926 41.1946 6.04188 41.2614 6.0458C41.3281 6.04842 41.3962 6.05234 41.4629 6.05758C41.7455 6.07197 42.0282 6.0916 42.3096 6.11646C42.4195 6.12432 42.5294 6.13348 42.638 6.14525C42.6393 6.14395 42.6406 6.14395 42.6432 6.14525C42.956 6.17404 43.2674 6.20676 43.5789 6.24471C43.677 6.25648 43.7752 6.26826 43.872 6.28135C44.5904 6.37426 45.3023 6.48941 46.0089 6.62943C46.0783 6.64252 46.1463 6.65561 46.2157 6.67C46.3073 6.68832 46.3976 6.70664 46.4879 6.72627C46.6187 6.75375 46.7483 6.78123 46.8779 6.81002C46.9747 6.83227 47.0702 6.8532 47.1657 6.87676C47.2809 6.90293 47.3934 6.93041 47.5073 6.95789C47.608 6.98275 47.7088 7.00762 47.8083 7.03248C48.5594 7.22354 49.3027 7.43945 50.0368 7.68285C50.1506 7.7208 50.2645 7.75875 50.3783 7.79801C50.5524 7.85689 50.7251 7.91709 50.8979 7.9799C50.996 8.01523 51.0928 8.05057 51.1897 8.08721C51.3166 8.13432 51.4435 8.18273 51.5705 8.23115C51.6974 8.27957 51.8243 8.3293 51.95 8.38033C52.4512 8.58055 52.9484 8.79385 53.4404 9.01893C53.5307 9.05949 53.621 9.10137 53.7113 9.14455C53.8016 9.18643 53.8906 9.22961 53.9809 9.27279C54.0712 9.31598 54.1602 9.35916 54.2492 9.40365C54.3395 9.44684 54.4284 9.49133 54.5174 9.53713C54.893 9.72426 55.2633 9.91924 55.6297 10.1221C55.6952 10.1574 55.7593 10.1927 55.8234 10.2294C55.9647 10.3079 56.1034 10.3864 56.2421 10.4675C56.3678 10.5395 56.4921 10.6128 56.6164 10.6874C56.759 10.7724 56.9004 10.8575 57.0417 10.9452C57.0744 10.9648 57.1084 10.9857 57.1398 11.0067C57.2628 11.0826 57.3859 11.1611 57.5089 11.2396C57.645 11.326 57.7797 11.4137 57.9145 11.5026C58.1501 11.6584 58.383 11.8154 58.6133 11.9777C58.7403 12.0653 58.8646 12.153 58.9889 12.2433C59.0661 12.2983 59.1407 12.3532 59.2166 12.4069C59.2545 12.4357 59.2925 12.4631 59.3304 12.4906C59.4076 12.5469 59.4835 12.6045 59.5594 12.6621C59.6222 12.7092 59.6851 12.7563 59.7479 12.8047C59.846 12.878 59.9429 12.9539 60.0397 13.0285C60.1313 13.1004 60.2229 13.1724 60.3132 13.2444C60.4244 13.3321 60.5343 13.421 60.6443 13.5113C60.7542 13.6016 60.8641 13.6919 60.9727 13.7835C61.0656 13.8607 61.1585 13.9379 61.2488 14.0178C61.3902 14.1368 61.5289 14.2585 61.6676 14.3815C61.7971 14.4967 61.9267 14.6119 62.0549 14.7296C62.1714 14.8356 62.2878 14.9429 62.403 15.0515C62.4998 15.1418 62.5954 15.2321 62.6896 15.3237C62.7524 15.3839 62.8152 15.4441 62.8767 15.5056C62.9814 15.6064 63.0848 15.7085 63.1882 15.8118C63.3321 15.9558 63.4747 16.101 63.6148 16.2476C63.7051 16.3392 63.7927 16.4321 63.8804 16.525L63.8922 16.5368C63.955 16.6035 64.0165 16.6703 64.078 16.7357C64.5138 17.2055 64.9338 17.6844 65.3395 18.1752C65.3853 18.2301 65.4298 18.2851 65.4743 18.3387C65.6496 18.5533 65.8224 18.7693 65.9912 18.9865C66.1299 19.1645 66.2673 19.3437 66.4021 19.5256C66.4387 19.574 66.4754 19.6225 66.5107 19.6722C66.5944 19.7847 66.6769 19.8986 66.758 20.0124C66.8562 20.1485 66.953 20.2846 67.0485 20.4233C67.1938 20.6314 67.3338 20.8395 67.4738 21.0501C67.746 21.461 68.009 21.8772 68.2616 22.2985C68.3336 22.4176 68.4042 22.538 68.4762 22.6597C68.556 22.7958 68.6345 22.9332 68.7117 23.0719C68.7523 23.1413 68.7903 23.2106 68.8282 23.2813C68.9774 23.5482 69.1226 23.8178 69.2627 24.0887C69.3242 24.2078 69.3857 24.3255 69.4445 24.4446C69.5466 24.6462 69.6474 24.849 69.7442 25.0544C69.7874 25.1434 69.8293 25.2337 69.8712 25.3227C69.8855 25.3541 69.9013 25.3842 69.9143 25.4156C69.9536 25.5007 69.9929 25.5844 70.0308 25.6695C70.0792 25.7755 70.1263 25.8815 70.1734 25.9888C70.2271 26.1079 70.2794 26.2282 70.3305 26.3486C70.3763 26.4572 70.4221 26.5646 70.4666 26.6732C70.5189 26.7988 70.5699 26.9244 70.6197 27.05C70.7675 27.4164 70.9076 27.7868 71.0397 28.1584C71.0868 28.288 71.1326 28.4175 71.1771 28.5484C71.4938 29.4657 71.7699 30.3974 72.0055 31.3422C72.0395 31.4836 72.0735 31.6249 72.1075 31.7662C72.1664 32.0135 72.2214 32.2622 72.2737 32.5121C72.3025 32.6456 72.33 32.7791 72.3562 32.9138C72.3837 33.0473 72.4085 33.1821 72.4334 33.3169C72.4569 33.4386 72.4792 33.5616 72.5001 33.6846C72.5498 33.966 72.5943 34.2499 72.6362 34.5339C72.6572 34.6687 72.6755 34.8048 72.6938 34.9409C72.7134 35.077 72.7304 35.2144 72.7474 35.3504C72.7932 35.7299 72.8338 36.1107 72.8678 36.4929C72.8966 36.8265 72.9215 37.1602 72.9411 37.4939C72.9437 37.545 72.9477 37.5947 72.949 37.6444C72.9542 37.7282 72.9581 37.8132 72.9621 37.897C72.9869 38.4296 73 38.9635 73 39.5Z" fill="#E1E1E4"/>
<path d="M72.9621 37.897C72.9581 37.8132 72.9542 37.7282 72.949 37.6444C72.9477 37.5947 72.9437 37.545 72.9411 37.4939C72.9215 37.1602 72.8966 36.8265 72.8678 36.4929C72.8338 36.1107 72.7932 35.7299 72.7474 35.3504C72.7304 35.2144 72.7134 35.077 72.6938 34.9409C72.6755 34.8048 72.6572 34.6687 72.6362 34.5339C72.5943 34.2499 72.5498 33.966 72.5001 33.6846C72.4792 33.5616 72.4569 33.4386 72.4334 33.3169C72.4085 33.1821 72.3837 33.0473 72.3562 32.9138C72.33 32.7791 72.3025 32.6456 72.2737 32.5121C72.2214 32.2622 72.1664 32.0135 72.1075 31.7662C72.0735 31.6249 72.0395 31.4836 72.0055 31.3422C71.7699 30.3974 71.4938 29.4657 71.1771 28.5484C71.1326 28.4175 71.0868 28.288 71.0397 28.1584C70.9076 27.7868 70.7675 27.4164 70.6197 27.05C70.5699 26.9244 70.5189 26.7988 70.4666 26.6732C70.4221 26.5646 70.3763 26.4572 70.3305 26.3486C70.2794 26.2282 70.2271 26.1079 70.1734 25.9888C70.1263 25.8815 70.0792 25.7755 70.0308 25.6695C69.9929 25.5844 69.9536 25.5007 69.9143 25.4156C69.9013 25.3842 69.8855 25.3541 69.8712 25.3227C69.8293 25.2337 69.7874 25.1434 69.7442 25.0544C69.6474 24.849 69.5466 24.6462 69.4445 24.4446C69.3857 24.3255 69.3242 24.2078 69.2627 24.0887C69.1226 23.8178 68.9774 23.5482 68.8282 23.2813C68.7903 23.2106 68.7523 23.1413 68.7117 23.0719C68.6345 22.9332 68.556 22.7958 68.4762 22.6597C68.4042 22.538 68.3336 22.4176 68.2616 22.2985C68.009 21.8772 67.746 21.461 67.4738 21.0501L58.8096 26.062C57.2092 23.7681 55.2097 21.7712 52.9131 20.1734L57.9145 11.5026C57.7797 11.4137 57.645 11.326 57.5089 11.2396C57.3859 11.1611 57.2629 11.0826 57.1398 11.0067C57.1084 10.9857 57.0744 10.9648 57.0417 10.9452C56.9004 10.8575 56.759 10.7724 56.6164 10.6874C56.4921 10.6128 56.3678 10.5395 56.2421 10.4675C56.1034 10.3864 55.9647 10.3079 55.8234 10.2294C55.7593 10.1927 55.6952 10.1574 55.6297 10.1221C55.2633 9.91924 54.893 9.72426 54.5174 9.53713C54.4284 9.49133 54.3395 9.44684 54.2492 9.40365C54.1602 9.35916 54.0712 9.31598 53.9809 9.27279C53.8906 9.22961 53.8016 9.18643 53.7113 9.14455C53.621 9.10137 53.5307 9.05949 53.4404 9.01893C52.9484 8.79385 52.4512 8.58055 51.95 8.38033C51.8243 8.3293 51.6974 8.27957 51.5705 8.23115C51.4435 8.18273 51.3166 8.13432 51.1897 8.08721C51.0928 8.05057 50.996 8.01523 50.8979 7.9799C50.7251 7.91709 50.5524 7.85689 50.3783 7.79801C50.2645 7.75875 50.1506 7.7208 50.0368 7.68285C49.3027 7.43945 48.5594 7.22354 47.8083 7.03248C47.7088 7.00762 47.608 6.98275 47.5073 6.95789C47.3934 6.93041 47.2809 6.90293 47.1657 6.87676C47.0702 6.8532 46.9747 6.83227 46.8779 6.81002C46.7483 6.78123 46.6187 6.75375 46.4879 6.72627C46.3976 6.70664 46.3073 6.68832 46.2157 6.67C46.1463 6.65561 46.0783 6.64252 46.0089 6.62943C45.3023 6.48941 44.5904 6.37426 43.872 6.28135C43.7752 6.26826 43.677 6.25648 43.5789 6.24471C43.2674 6.20676 42.956 6.17404 42.6432 6.14525C42.6406 6.14395 42.6393 6.14395 42.638 6.14525C42.5294 6.13348 42.4195 6.12432 42.3096 6.11646C42.0282 6.0916 41.7455 6.07197 41.4629 6.05758C41.3962 6.05234 41.3281 6.04842 41.2614 6.0458C41.1946 6.04188 41.1279 6.03926 41.0598 6.03664C40.8596 6.02748 40.6594 6.01963 40.4579 6.01439C40.3794 6.01178 40.3009 6.00916 40.2223 6.00785C40.1438 6.00654 40.064 6.00523 39.9855 6.00393C39.8245 6.00131 39.6623 6 39.5 6C38.8431 6 38.1888 6.01832 37.5371 6.05758V16.0474C34.6373 16.2882 31.884 17.0563 29.3754 18.2563L24.3321 9.61303C24.2169 9.67191 24.1031 9.7308 23.9892 9.791C23.6464 9.97027 23.3075 10.1587 22.9698 10.3498L22.9685 10.3471C22.2802 10.7384 21.605 11.1546 20.9441 11.5955C20.6222 11.8115 20.3042 12.0326 19.9889 12.259C18.5167 13.3177 17.1191 14.5046 15.8118 15.8118C14.4509 17.1728 13.2208 18.6319 12.1295 20.1708C11.89 20.5071 11.6584 20.8473 11.432 21.1915C10.7122 22.2907 10.0606 23.4265 9.47955 24.5964L18.1686 29.5652C17.0066 32.0489 16.2659 34.7655 16.0395 37.6261L6.04973 37.664C6.01701 38.2738 6 38.885 6 39.5C6 40.2001 6.02094 40.8963 6.06412 41.5898C6.08506 41.9458 6.11254 42.3004 6.14656 42.655C6.49596 46.4316 7.47479 50.0747 9.02939 53.464C9.20998 53.8566 9.39711 54.2452 9.5934 54.63C10.1836 55.7946 10.8444 56.9265 11.572 58.0205L20.2244 52.9864C21.8314 55.2764 23.8348 57.2681 26.1353 58.8606L21.1561 67.5432C22.254 68.2655 23.3899 68.9198 24.5598 69.5021C24.8896 69.667 25.2219 69.8267 25.5569 69.9798C28.9619 71.5396 32.6246 72.5171 36.4196 72.86C36.8187 72.8979 37.2191 72.9267 37.6209 72.9477C38.2438 72.983 38.8706 73 39.5 73C39.7081 73 39.9148 72.9987 40.1216 72.9935C40.2302 72.9921 40.3388 72.9895 40.4461 72.9856C40.4566 72.9869 40.4671 72.9869 40.4775 72.9856C40.5181 72.9843 40.5587 72.9843 40.5992 72.9817C40.6058 72.9817 40.6136 72.9817 40.6202 72.9804C40.7589 72.9764 40.8976 72.9712 41.0363 72.9647C41.1868 72.9581 41.3373 72.9503 41.4864 72.9411C41.5061 72.9411 41.5257 72.9398 41.5466 72.9385L41.5218 62.9474C44.3797 62.7027 47.0938 61.9463 49.5696 60.7686L54.592 69.4249C54.7373 69.3516 54.8825 69.2771 55.0278 69.2012C55.1403 69.1423 55.2529 69.0821 55.3641 69.0219C55.6938 68.8465 56.0184 68.6633 56.3403 68.4762C56.4738 68.3977 56.6059 68.3192 56.7381 68.2393C57.0404 68.0588 57.3387 67.8716 57.6345 67.6806C57.7523 67.6047 57.8687 67.5275 57.9852 67.4503C58.294 67.2461 58.6002 67.0354 58.9025 66.8182C59.0923 66.6834 59.2794 66.546 59.4665 66.4073C59.6537 66.2686 59.8382 66.1286 60.0214 65.9846L60.2412 65.8119C60.3511 65.7255 60.4611 65.6379 60.5697 65.5489C60.6613 65.4756 60.7516 65.401 60.8405 65.3264C60.9465 65.2387 61.0512 65.1511 61.1559 65.0621C61.8547 64.4693 62.5326 63.8438 63.1882 63.1882C63.3413 63.0351 63.4931 62.8806 63.6422 62.7249C63.7325 62.632 63.8215 62.5378 63.9092 62.4436C64.0819 62.2617 64.2494 62.0785 64.4169 61.894C64.5753 61.7173 64.7323 61.5406 64.8867 61.3614C64.9024 61.343 64.9181 61.3247 64.9338 61.3064C65.0267 61.1991 65.1183 61.0905 65.2086 60.9819C65.3473 60.817 65.4847 60.6508 65.6195 60.4833C65.6758 60.4126 65.7321 60.342 65.7883 60.2713C65.8682 60.1705 65.9467 60.0711 66.0252 59.969C66.1037 59.8683 66.1822 59.7662 66.2594 59.6628C66.389 59.4927 66.5159 59.3213 66.6402 59.1498C66.7044 59.0609 66.7685 58.9732 66.8313 58.8842C66.8365 58.879 66.8405 58.8724 66.8457 58.8646C66.9831 58.6722 67.1192 58.4759 67.2527 58.2796C67.3403 58.1527 67.4254 58.0245 67.5091 57.8962C67.5131 57.891 67.517 57.8857 67.5209 57.8792C67.5248 57.8727 67.5301 57.8661 67.5327 57.8596C67.5863 57.7797 67.6387 57.7012 67.6897 57.6201C67.708 57.5913 67.7277 57.5625 67.746 57.5324C67.8494 57.3702 67.9528 57.2066 68.0548 57.0417C68.1399 56.903 68.2236 56.7643 68.3074 56.6243C68.3898 56.4855 68.4723 56.3455 68.5534 56.2055C68.8007 55.7789 69.0363 55.3471 69.2627 54.9113C69.3372 54.7674 69.4105 54.6234 69.4825 54.4782L60.8065 49.4885C61.9738 47.0087 62.721 44.2921 62.9552 41.4328L72.945 41.4197C72.9542 41.2601 72.9621 41.1004 72.9686 40.9408C72.983 40.6215 72.9921 40.3022 72.9961 39.9816C72.9987 39.8206 73 39.661 73 39.5C73 38.9635 72.9869 38.4296 72.9621 37.897ZM39.5 59.1093C28.6871 59.1093 19.8907 50.3129 19.8907 39.5C19.8907 28.6871 28.6871 19.8907 39.5 19.8907C50.3129 19.8907 59.1093 28.6871 59.1093 39.5C59.1093 50.3129 50.3129 59.1093 39.5 59.1093Z" fill="#E70020"/>
<path d="M53.3665 53.3664C49.6623 57.069 44.7376 59.1092 39.5 59.1092V19.8906C44.7376 19.8906 49.6623 21.931 53.3665 25.6334C57.069 29.3375 59.1093 34.2623 59.1093 39.4999C59.1093 44.7376 57.069 49.6623 53.3665 53.3664Z" fill="#E1E1E4"/>
<path d="M73 39.5C73 39.661 72.9987 39.8206 72.9961 39.9816C72.9921 40.3022 72.983 40.6215 72.9686 40.9408C72.9621 41.1004 72.9542 41.2601 72.945 41.4197L62.9552 41.4328C62.721 44.2921 61.9738 47.0087 60.8065 49.4885L69.4825 54.4782C69.4105 54.6234 69.3372 54.7674 69.2627 54.9113C69.0363 55.3471 68.8007 55.7789 68.5534 56.2055C68.4723 56.3455 68.3898 56.4855 68.3074 56.6243C68.2236 56.7643 68.1399 56.903 68.0548 57.0417C67.9528 57.2066 67.8494 57.3702 67.746 57.5324C67.7277 57.5625 67.708 57.5913 67.6897 57.6201C67.6387 57.7012 67.5863 57.7797 67.5327 57.8596C67.5301 57.8661 67.5248 57.8727 67.5209 57.8792C67.517 57.8857 67.5131 57.891 67.5091 57.8962C67.4254 58.0245 67.3403 58.1527 67.2527 58.2796C67.1192 58.4759 66.9831 58.6722 66.8457 58.8646C66.8405 58.8724 66.8365 58.879 66.8313 58.8842C66.7685 58.9732 66.7044 59.0609 66.6402 59.1498C66.5159 59.3213 66.389 59.4927 66.2594 59.6628C66.1822 59.7662 66.1037 59.8683 66.0252 59.969C65.9467 60.0711 65.8682 60.1705 65.7883 60.2713C65.7321 60.342 65.6758 60.4126 65.6195 60.4833C65.4847 60.6508 65.3473 60.817 65.2086 60.9819C65.1183 61.0905 65.0267 61.1991 64.9338 61.3064C64.9181 61.3247 64.9024 61.343 64.8867 61.3614C64.7323 61.5406 64.5753 61.7173 64.4169 61.894C64.2494 62.0785 64.0819 62.2617 63.9092 62.4436C63.8215 62.5378 63.7325 62.632 63.6422 62.7249C63.4931 62.8806 63.3413 63.0351 63.1882 63.1882C62.5326 63.8438 61.8547 64.4693 61.1559 65.0621C61.0512 65.1511 60.9465 65.2387 60.8405 65.3264C60.7516 65.401 60.6613 65.4756 60.5697 65.5489C60.4611 65.6379 60.3511 65.7255 60.2412 65.8119L60.0214 65.9846C59.8382 66.1286 59.6537 66.2686 59.4665 66.4073C59.2794 66.546 59.0923 66.6834 58.9025 66.8182C58.6002 67.0354 58.294 67.2461 57.9852 67.4503C57.8687 67.5275 57.7523 67.6047 57.6345 67.6806C57.3387 67.8716 57.0404 68.0588 56.7381 68.2393C56.6059 68.3192 56.4738 68.3977 56.3403 68.4762C56.0184 68.6633 55.6938 68.8465 55.3641 69.0219C55.2529 69.0821 55.1403 69.1423 55.0278 69.2012C54.8825 69.2771 54.7373 69.3516 54.592 69.4249L49.5696 60.7686C47.0938 61.9463 44.3797 62.7027 41.5218 62.9474L41.5466 72.9385C41.5257 72.9398 41.5061 72.9411 41.4864 72.9411C41.3373 72.9503 41.1868 72.9581 41.0363 72.9647C40.8976 72.9712 40.7589 72.9764 40.6202 72.9804C40.6136 72.9817 40.6058 72.9817 40.5992 72.9817C40.5587 72.9843 40.5181 72.9843 40.4775 72.9856C40.4671 72.9869 40.4566 72.9869 40.4461 72.9856C40.3388 72.9895 40.2302 72.9921 40.1216 72.9935C39.9148 72.9987 39.7081 73 39.5 73V59.1093C50.3129 59.1093 59.1093 50.3129 59.1093 39.5C59.1093 28.6871 50.3129 19.8907 39.5 19.8907V6C39.6623 6 39.8245 6.00131 39.9855 6.00393C40.064 6.00523 40.1438 6.00654 40.2223 6.00785C40.3009 6.00916 40.3794 6.01178 40.4579 6.01439C40.6594 6.01963 40.8596 6.02748 41.0598 6.03664C41.1279 6.03926 41.1946 6.04188 41.2614 6.0458C41.3281 6.04842 41.3962 6.05234 41.4629 6.05758C41.7455 6.07197 42.0282 6.0916 42.3096 6.11646C42.4195 6.12432 42.5294 6.13348 42.638 6.14525C42.6393 6.14395 42.6406 6.14395 42.6432 6.14525C42.956 6.17404 43.2674 6.20676 43.5789 6.24471C43.677 6.25648 43.7752 6.26826 43.872 6.28135C44.5904 6.37426 45.3023 6.48941 46.0089 6.62943C46.0783 6.64252 46.1463 6.65561 46.2157 6.67C46.3073 6.68832 46.3976 6.70664 46.4879 6.72627C46.6187 6.75375 46.7483 6.78123 46.8779 6.81002C46.9747 6.83227 47.0702 6.8532 47.1657 6.87676C47.2809 6.90293 47.3934 6.93041 47.5073 6.95789C47.608 6.98275 47.7088 7.00762 47.8083 7.03248C48.5594 7.22354 49.3027 7.43945 50.0368 7.68285C50.1506 7.7208 50.2645 7.75875 50.3783 7.79801C50.5524 7.85689 50.7251 7.91709 50.8979 7.9799C50.996 8.01523 51.0928 8.05057 51.1897 8.08721C51.3166 8.13432 51.4435 8.18273 51.5705 8.23115C51.6974 8.27957 51.8243 8.3293 51.95 8.38033C52.4512 8.58055 52.9484 8.79385 53.4404 9.01893C53.5307 9.05949 53.621 9.10137 53.7113 9.14455C53.8016 9.18643 53.8906 9.22961 53.9809 9.27279C54.0712 9.31598 54.1602 9.35916 54.2492 9.40365C54.3395 9.44684 54.4284 9.49133 54.5174 9.53713C54.893 9.72426 55.2633 9.91924 55.6297 10.1221C55.6952 10.1574 55.7593 10.1927 55.8234 10.2294C55.9647 10.3079 56.1034 10.3864 56.2421 10.4675C56.3678 10.5395 56.4921 10.6128 56.6164 10.6874C56.759 10.7724 56.9004 10.8575 57.0417 10.9452C57.0744 10.9648 57.1084 10.9857 57.1398 11.0067C57.2628 11.0826 57.3859 11.1611 57.5089 11.2396C57.645 11.326 57.7797 11.4137 57.9145 11.5026L52.9131 20.1734C55.2097 21.7712 57.2092 23.7681 58.8096 26.062L67.4738 21.0501C67.746 21.461 68.009 21.8772 68.2616 22.2985C68.3336 22.4176 68.4042 22.538 68.4762 22.6597C68.556 22.7958 68.6345 22.9332 68.7117 23.0719C68.7523 23.1413 68.7903 23.2106 68.8282 23.2813C68.9774 23.5482 69.1226 23.8178 69.2627 24.0887C69.3242 24.2078 69.3857 24.3255 69.4445 24.4446C69.5466 24.6462 69.6474 24.849 69.7442 25.0544C69.7874 25.1434 69.8293 25.2337 69.8712 25.3227C69.8855 25.3541 69.9013 25.3842 69.9143 25.4156C69.9536 25.5007 69.9929 25.5844 70.0308 25.6695C70.0792 25.7755 70.1263 25.8815 70.1734 25.9888C70.2271 26.1079 70.2794 26.2282 70.3305 26.3486C70.3763 26.4572 70.4221 26.5646 70.4666 26.6732C70.5189 26.7988 70.5699 26.9244 70.6197 27.05C70.7675 27.4164 70.9076 27.7868 71.0397 28.1584C71.0868 28.288 71.1326 28.4175 71.1771 28.5484C71.4938 29.4657 71.7699 30.3974 72.0055 31.3422C72.0395 31.4836 72.0735 31.6249 72.1075 31.7662C72.1664 32.0135 72.2214 32.2622 72.2737 32.5121C72.3025 32.6456 72.33 32.7791 72.3562 32.9138C72.3837 33.0473 72.4085 33.1821 72.4334 33.3169C72.4569 33.4386 72.4792 33.5616 72.5001 33.6846C72.5498 33.966 72.5943 34.2499 72.6362 34.5339C72.6572 34.6687 72.6755 34.8048 72.6938 34.9409C72.7134 35.077 72.7304 35.2144 72.7474 35.3504C72.7932 35.7299 72.8338 36.1107 72.8678 36.4929C72.8966 36.8265 72.9215 37.1602 72.9411 37.4939C72.9437 37.545 72.9477 37.5947 72.949 37.6444C72.9542 37.7282 72.9581 37.8132 72.9621 37.897C72.9869 38.4296 73 38.9635 73 39.5Z" fill="#990013"/>
<path d="M48.8862 43.2864C47.4131 45.6921 45.3596 46.2103 43.8966 46.2213C43.1362 46.2272 42.375 46.0943 41.6504 45.8335C41.8096 46.4909 42.0137 46.8488 42.1855 46.9695L42.4543 47.1585V48.9219H36.5467V47.1584L36.8154 46.9693C36.9873 46.8487 37.1914 46.4908 37.3505 45.8333C36.626 46.0941 35.8651 46.2271 35.1043 46.2212C33.6413 46.2102 31.588 45.692 30.1148 43.2863C28.9274 41.3468 28.8961 39.0467 30.0287 36.976C30.9026 35.3775 32.2567 34.1036 33.5661 32.8714C33.7965 32.655 34.0137 32.4503 34.2303 32.2427C35.0418 31.4633 35.8634 30.7121 36.6575 29.986C37.4462 29.2648 38.2618 28.5192 39.0619 27.7508L39.5005 27.3301L39.9389 27.7508C40.739 28.5192 41.5546 29.2648 42.3433 29.986C43.1375 30.7123 43.9591 31.4633 44.7705 32.2427C44.987 32.4503 45.2043 32.6549 45.4348 32.8714C46.7441 34.1036 48.0983 35.3775 48.9721 36.976C50.1049 39.0467 50.0736 41.3469 48.8862 43.2864Z" fill="#3C3A41"/>
<path d="M48.8856 43.2864C47.4125 45.6921 45.3591 46.2103 43.8961 46.2213C43.1357 46.2272 42.3745 46.0943 41.6499 45.8335C41.809 46.4909 42.0132 46.8488 42.185 46.9695L42.4538 47.1585V48.9219H39.5V27.3301L39.9384 27.7508C40.7385 28.5192 41.5541 29.2648 42.3428 29.986C43.137 30.7123 43.9585 31.4633 44.77 32.2427C44.9864 32.4503 45.2038 32.6549 45.4342 32.8714C46.7436 34.1036 48.0977 35.3775 48.9716 36.976C50.1043 39.0467 50.073 41.3469 48.8856 43.2864Z" fill="#17171A"/>
</svg>
